<svg id="Layer_1" data-name="Layer 1" xmlns="http://www.w3.org/2000/svg" viewBox="0 0 436 934"><defs><style>.cls-1{fill:#e40059;}.cls-2{fill:#fdfdfd;}.cls-3{fill:#fbfbfb;}.cls-4{fill:#e5e5e5;}.cls-5{fill:#fefefe;}.cls-6{fill:#c4c4c4;}.cls-7{fill:#f2f2f2;}.cls-8{fill:#fefdfd;}.cls-9{fill:#fefcfd;}.cls-10{fill:#df8dac;}.cls-11{fill:#e08dad;}.cls-12{fill:#df91af;}.cls-13{fill:#df96b2;}.cls-14{fill:#e09cb6;}.cls-15{fill:#e0a0b9;}.cls-16{fill:#df8cac;}.cls-17{fill:#df8aab;}.cls-18{fill:#df8fae;}.cls-19{fill:#df94b2;}.cls-20{fill:#fdf1f6;}.cls-21{fill:#e18faf;}.cls-22{fill:#e19eb8;}.cls-23{fill:#e090af;}.cls-24{fill:#e097b4;}.cls-25{fill:#df95b2;}.cls-26{fill:#e1a3bb;}.cls-27{fill:#e4035c;}.cls-28{fill:#e4045c;}</style></defs><path class="cls-1" d="M746.12,73.21h427.79a4.46,4.46,0,0,1,1.38,2.33c.1.95.1,1.9.11,2.85q0,456.36-.05,912.73c0,3,1.3,6.45-2,8.77-1.92.76-3.94.51-5.93.51H752.83a19,19,0,0,1-6-.43c-1.83-.79-2.13-2.41-2.19-4.13-.08-2,0-4,0-6q0-455.07,0-910.13c0-.9,0-1.81,0-2.71a6.07,6.07,0,0,1,.46-2.48A8.62,8.62,0,0,1,746.12,73.21Z" transform="translate(-742 -73)"/><path class="cls-2" d="M1174.08,75.22c-.06-.67-.12-1.34-.17-2,3.42-.76,4.09.57,4.09,4q-.15,462.84,0,925.7c0,3.42-.67,4.09-4.09,4.09q-213.9-.16-427.79,0c-3.42,0-4.09-.67-4.09-4.09q.16-223.93.1-447.86a1.3,1.3,0,0,1,1.71.47c1.32,2.69.76,5.57.76,8.36q0,214,0,428c0,2.95-.64,6,1.12,8.76a11.72,11.72,0,0,0,2,2,10.47,10.47,0,0,0,6.16,1.72c2,.08,4,.06,6,.06h400.25c14.28,0,15.28-1,15.28-15.35V85C1175.41,81.69,1175.55,78.35,1174.08,75.22Z" transform="translate(-742 -73)"/><path class="cls-3" d="M744.13,1002.91c-1.64-2.43-1-5.18-1-7.79q0-220,0-440.07c-1-1.89-.47-3.93-.47-5.88q0-125,0-250c-.27-3.32.57-6.7-.5-10v-4a13.47,13.47,0,0,0,0-8v-1a249.15,249.15,0,0,0,0-35v-4a5.55,5.55,0,0,0,0-5v-1c1.11-7.89.4-15.82.43-23.73,0-6.42.67-12.86-.43-19.26v-2a5.57,5.57,0,0,0,0-5v-4a7.87,7.87,0,0,0,0-6v-1a7.89,7.89,0,0,0,0-6v-4a10.63,10.63,0,0,0,0-7v-1a5.57,5.57,0,0,0,0-5v-1a40.09,40.09,0,0,0,0-14v-8a117.28,117.28,0,0,0,0-24v-4c1.43-5.67-.45-11.53,1-17.2a1.38,1.38,0,0,1,1.58.78c.7,2.63.37,5.31.37,8q0,452.54-.07,905.07C745,996.14,746.68,999.76,744.13,1002.91Z" transform="translate(-742 -73)"/><path class="cls-2" d="M743.12,298.13V555.05h-1V298.13Q742.63,297.13,743.12,298.13Z" transform="translate(-742 -73)"/><path class="cls-2" d="M742.13,188.17a6,6,0,0,1,1,3.78q0,17.72,0,35.42a6,6,0,0,1-1,3.79Z" transform="translate(-742 -73)"/><path class="cls-2" d="M742.13,241.15c2.13,5.65.89,11.51.88,17.25,0,5.9,1.22,11.93-.88,17.74Z" transform="translate(-742 -73)"/><path class="cls-2" d="M743.13,79.2c-.52,5.66,1.12,11.44-1,17,0-6.33.25-12.68-.1-19-.2-3.45.67-4.76,4.09-4l-.16,1C745,75.9,744.78,78,743.13,79.2Z" transform="translate(-742 -73)"/><path class="cls-2" d="M742.13,100.2a59.46,59.46,0,0,1,0,24Z" transform="translate(-742 -73)"/><path class="cls-2" d="M742.13,132.19a21.5,21.5,0,0,1,0,14Z" transform="translate(-742 -73)"/><path class="cls-2" d="M743.12,298.13h-1v-9C743.91,292,742.82,295.13,743.12,298.13Z" transform="translate(-742 -73)"/><path class="cls-2" d="M742.13,277.14a7.9,7.9,0,0,1,0,8Z" transform="translate(-742 -73)"/><path class="cls-2" d="M742.13,153.18a6.32,6.32,0,0,1,0,7Z" transform="translate(-742 -73)"/><path class="cls-2" d="M742.13,171.18a5,5,0,0,1,0,6Z" transform="translate(-742 -73)"/><path class="cls-2" d="M742.13,164.18a5,5,0,0,1,0,6Z" transform="translate(-742 -73)"/><path class="cls-2" d="M742.13,232.16a3.79,3.79,0,0,1,0,5Z" transform="translate(-742 -73)"/><path class="cls-2" d="M742.13,181.17a3.8,3.8,0,0,1,0,5Z" transform="translate(-742 -73)"/><path class="cls-2" d="M742.13,147.18a3.8,3.8,0,0,1,0,5Z" transform="translate(-742 -73)"/><path class="cls-4" d="M1173,999.08c1.79-1.62.9-3.75.9-5.61q.08-455.38.05-910.76c0-1.83.11-3.66.16-5.49,2.51.77,1.78,3,1.78,4.58.05,49.31.13,98.63,0,147.94,0,3.33.1,6.65.1,10q0,117.95,0,235.91V731q0,130.43,0,260.86c0,14.76-.07,13-13.06,13q-204.13,0-408.26,0c-2.48,0-5,.42-7.42-.56a5,5,0,0,1-2.54-5c.07-1.16,0-2.33,0-3.5q0-455.67.08-911.35c0-2-1.42-4.62,1.25-6.23,0,19.48.16,39,.16,58.45q0,428.15,0,856.31c0,2-.93,4.31.9,6.11,2.31,1.93,5.07,1.31,7.68,1.31q195.79,0,391.58,0h21C1169.29,1000.4,1171.35,1000.67,1173,999.08Z" transform="translate(-742 -73)"/><path class="cls-3" d="M747.12,1003.91l420.65,0c7,0,7.17-.24,7.17-8V551.25q0-233.08,0-466.19c0-2.62.57-5.35-.85-7.84v-2c2.38,1.8,2.83,4.36,2.83,7.12q-.14,74.21-.24,148.39c0,3.33.23,6.65.23,10q0,116.93,0,233.84V991.16c0,14.67-.08,14.75-14.66,14.75q-204.07,0-408.16,0c-3.11,0-6.41.63-9-2A1.32,1.32,0,0,1,747.12,1003.91Z" transform="translate(-742 -73)"/><path class="cls-5" d="M853,554l-6-6.94c-.28-1.34.56-1.91,1.6-2.36a29.54,29.54,0,0,1,4.37-.93c.7-.24,1.91-.19,1.71-1.17-.27-1.39-1.76-.93-2.76-1.21a9.3,9.3,0,0,0-4.6-.11c-2.54-.26-5.45.64-7.15-2.27l-3.19-6.91c-3.66-5-.9-10.49-1-15.74,0-1.57,1.78-2.17,3.34-2.37a30.36,30.36,0,0,1,6.87-.06c1.33-.11,3.37.72,3.55-1.37s-1.93-1.51-3.25-1.8c-2.34-.52-4.92.49-7.08-1.11l-.31-.6c8.46-13.95,25.86-14.43,37.06-1-1.2,2.41-1.2,2.41-4.85,4.53,2.47,1.84,5.15,1,7.61,1.15s5-.05,7.43.22c4.15.44,6.33,2.67,6.24,6.25s-2.52,5.73-6.55,6c-1.33.08-2.64-.19-4-.16-7.46.89-15-.22-22.5,1.58,7.63,1.63,15.41.72,23.07,1.49a52,52,0,0,1,11.29,0,37.55,37.55,0,0,1,8.14.15,6.13,6.13,0,0,1,6.34,3.4c1.13,2.41.4,4.43-1.28,6.26-1.74,2.38-4.24,2.32-6.78,2.13a45.09,45.09,0,0,1-6,0c-1.34,0-2.68,0-4,0-6,.8-12-.12-18,1.3,2.3,2.09,5.11,1.32,7.69,1.43,3.92.18,8-.38,11.18,2.7,2.35,5.32.33,9-5.51,9.69-4.29.51-8.62.14-12.93.28-1.72.06-3.64-.55-5.44,1.25,4,2.07,8.21.68,12.13,1.27,5,.74,6.75,3.27,5.34,8.15-3.62,3.49-8,3.79-12.65,3.05-5.66-3.16-9.33-8.78-14.92-12-1.63-.42-1.92-2.44-3.5-2.91A2.35,2.35,0,0,1,853,554Z" transform="translate(-742 -73)"/><path class="cls-6" d="M1173,999.08c-.57,3.81-3.59,2.83-5.88,2.83-21,.07-41.94,0-62.91,0q-174.75,0-349.5-.05c-2.74,0-6.27,1.33-7.6-2.82,22-.05,43.93-.15,65.9-.15q177.25,0,354.51,0C1169.31,998.93,1171.14,999,1173,999.08Z" transform="translate(-742 -73)"/><path class="cls-7" d="M747.12,1003.91h-2l-1-1q0-461.86,0-923.71c-1-2-.1-2.81,1.85-3v2c-1.13,1.83-.83,3.87-.83,5.85q0,455.92,0,911.83C745.1,998.77,745.12,1001.57,747.12,1003.91Z" transform="translate(-742 -73)"/><path class="cls-8" d="M1088.8,546.2c-3.5,7.67-10.42,10.6-18.2,8-7.53-2.5-11.42-10.51-9.25-19.05,1.87-7.36,8.52-11.66,16.31-10.55s12.48,6.78,12.35,14.35c0,2.33-.65,3.23-3.09,3.17-5.47-.15-11,.1-16.43-.1-3.63-.13-3.48,1.46-2.15,3.83,2.3,4.11,8.2,5.28,12.15,2.46C1084.11,545.73,1084.11,545.73,1088.8,546.2Z" transform="translate(-742 -73)"/><path class="cls-9" d="M953.11,535.87c0-5,.19-10-.07-15-.17-3.18,1-4.1,4-3.84,4.61.39,9.3-.56,13.87.72,5.78,1.62,8.67,5.53,8.33,11.31-.32,5.46-4.13,9.12-9.89,10.07-3.3.55-7.78-1.74-9.64,1.51-1.44,2.53-.44,6.48-.43,9.8,0,2.25.26,4.21-3.17,4.18s-3-2.23-3-4.35Z" transform="translate(-742 -73)"/><path class="cls-10" d="M882.06,524c1.81-.1,3.64-.11,5.44-.33,2-.25,3.42-1.17,3.5-3.46.09-2.55-1.41-3.7-3.64-3.78-4.8-.16-9.6-.09-14.4-.14-2.83,0-6.32.26-6.4-3.67s3.33-3.77,6.22-3.88a18.78,18.78,0,0,0,3.32-.72c2.3-.12,3.18-2.2,4.65-3.44,5.68-4.82,11.91-7.69,19.57-5.66-3.76,3.62-4.22,8.17-4,13.07.22,4.43.09,8.89,0,13.33,0,2.21-.39,4.26-2.27,5.73h-12C879.68,528.73,879.69,526.38,882.06,524Z" transform="translate(-742 -73)"/><path class="cls-9" d="M1011.9,540c0,3.67-.23,7.35.06,11,.35,4.52-3.65,4.7-4.92,3.29-2.41-2.7-3.82-.77-5.6-.1-8.12,3.09-16-1.7-16.5-10.28-.29-5.31,0-10.65-.15-16,0-2,.47-3,2.77-3,2.07.08,3.48.21,3.39,2.91-.17,4.65-.14,9.32,0,14,.15,5,2.74,7.76,7.15,7.86s7.3-2.65,7.56-7.51c.24-4.49.12-9,.08-13.49,0-2.12-.14-3.83,3-3.8,2.82,0,3.31,1.18,3.22,3.6C1011.79,532.29,1011.9,536.12,1011.9,540Z" transform="translate(-742 -73)"/><path class="cls-9" d="M1045.05,555.13c-4.43-.23-8.19-1.35-10.76-4.86-.93-1.28-2.49-3.24-.87-4.34s4.16-1.58,5.72.72c2.07,3,4.8,3.9,8.22,2.82,1.53-.48,2.68-1.31,2.69-3.14,0-1.63-1.12-2.41-2.38-2.86-2.65-1-5.39-1.64-8.05-2.59-3.86-1.39-6.94-3.69-6.55-8.28s3.61-6.82,7.9-7.73c5.93-1.25,11.56.52,13.64,4.62.63,1.25,2.47,3.22.44,4.22-1.45.73-3.89,1.19-5.43-.77a16.34,16.34,0,0,0-1.08-1.66c-2-2-4.58-1.75-7-1.12a2.66,2.66,0,0,0-2.18,3c.43,2.59,2.82,3,4.82,3.74,1.71.61,3.52,1,5.24,1.57,4,1.44,7.18,3.66,6.75,8.6s-3.82,6.68-7.92,7.74A21,21,0,0,1,1045.05,555.13Z" transform="translate(-742 -73)"/><path class="cls-11" d="M884.05,567c.72-4.14-1.19-5.88-5.22-5.82s-8,0-12,0c-2.65,0-4.72-1-4.61-4,.1-2.79,2.28-3.41,4.62-3.43,6.16,0,12.32,0,18.47-.11,4.19-.08,6.34-1.87,4.64-6.35-2.07-2.79-2.9-5.57.08-8.31h4c4.17,6.5,2.5,13.24.82,20a72.24,72.24,0,0,1-10.69,9.45A.85.85,0,0,1,884.05,567Z" transform="translate(-742 -73)"/><path class="cls-12" d="M894.05,531.08c0-8.49.27-17-.1-25.46-.23-5,1.31-7.24,6.37-6.67a5.15,5.15,0,0,1,3.8,1.09c.5,8.25.22,16.52.2,24.78,0,2.34-.19,4.65-2.27,6.26Z" transform="translate(-742 -73)"/><path class="cls-9" d="M1019.93,535.05c0-5.65.07-11.31,0-17,0-2.22.42-3.33,3-3.28,2.28,0,3.23.57,3.2,3.06-.11,11.15-.09,22.29,0,33.44,0,2.21-.44,3.29-3,3.34-2.87.07-3.24-1.27-3.19-3.63C1020,545.7,1019.93,540.38,1019.93,535.05Z" transform="translate(-742 -73)"/><path class="cls-13" d="M902.05,531.08c0-8.65,0-17.3,0-26,0-1.93-.44-4.13,2.06-5.09a8.75,8.75,0,0,1,5.15,2.89c1.56,8.86.51,17.8.69,26.7,0,1.71-.59,3.31-2.8,3.36A9,9,0,0,0,902.05,531.08Z" transform="translate(-742 -73)"/><path class="cls-9" d="M945.06,539.9c0,3.82-.09,7.64,0,11.45.08,2.26-.5,3.32-3,3.29-2.33,0-3.21-.71-3.17-3.14.13-7.8.11-15.6,0-23.4,0-2.26.51-3.25,3-3.21,2.3,0,3.28.59,3.17,3.06C944.93,531.93,945.06,535.92,945.06,539.9Z" transform="translate(-742 -73)"/><path class="cls-14" d="M907.16,533c1.94-7.76.39-15.65.88-23.46.14-2.25-.48-4.64,1.23-6.6a8.49,8.49,0,0,1,4,4,98.54,98.54,0,0,1-.22,32.15,17.14,17.14,0,0,1-4.26,5.86c-4.34-.93-2.32-4.33-2.65-6.82A7.42,7.42,0,0,0,907.16,533Z" transform="translate(-742 -73)"/><path class="cls-15" d="M913.06,539.07c-2.22-6.26-.78-12.73-.91-19.09-.09-4.33-1.28-8.89,1.13-13.06C920.49,515.89,920.4,528.76,913.06,539.07Z" transform="translate(-742 -73)"/><path class="cls-16" d="M849.06,546,847,547.09c-4.09-1.83-8.42-.64-12.63-.91-2.6-.18-5.25-.22-5.12-3.75.12-3.14,2.58-3.36,5-3.36l5.91,0,8,.19C851.42,541,851.51,543.32,849.06,546Z" transform="translate(-742 -73)"/><path class="cls-17" d="M848.06,516c-2,.07-4,.17-5.94.19-6,.05-7.74,2-5.94,7.72a23.63,23.63,0,0,1,.75,8.24c-1.24-1-2.92-.67-4.2-1.29-2.51-1.22-3.84-3.83-1.07-5.31,5.12-2.75,3.69-7,3-10.7-.78-4.18.58-5.62,4.38-5.75l.11-.13c1.79,1.22,3.81.5,5.72.59C849.79,509.77,850.66,511.44,848.06,516Z" transform="translate(-742 -73)"/><path class="cls-18" d="M894.87,559c-1.77-6.61-.37-13.34-.82-20h6c4.25,4.44,1.58,9.28.82,14C899.48,555.6,897.14,557.24,894.87,559Z" transform="translate(-742 -73)"/><path class="cls-19" d="M900.87,553c-1.68-4.59-.45-9.35-.82-14l6.1-.87c2.74,1.55,1.22,4.76,2.65,6.82C907.07,548.51,903,549.75,900.87,553Z" transform="translate(-742 -73)"/><path class="cls-16" d="M853,554l1.06.17c2.08,1.46,1.24,3.89,1.91,5.81-3.16,2.21-6.67,1-10,.85a3,3,0,0,1-2.68-3.11,3.14,3.14,0,0,1,2.82-3.49A63.48,63.48,0,0,1,853,554Z" transform="translate(-742 -73)"/><path class="cls-20" d="M946.07,516.94c-.38,2.46-1.57,3.95-3.86,4a3.64,3.64,0,0,1-4-4,3.6,3.6,0,0,1,3.75-3.78C944.48,513.12,945.71,514.75,946.07,516.94Z" transform="translate(-742 -73)"/><path class="cls-21" d="M884.05,567c.05.46.09.92.13,1.38-.94.93-1.85,1.9-2.83,2.79-5,4.48-5.05,4.46-9.33-1.1,1.45-2.23,3.78-1.64,5.84-1.74S882.19,568.43,884.05,567Z" transform="translate(-742 -73)"/><path class="cls-22" d="M856,560c-2.79-1.22-1.57-3.77-1.91-5.81,2.33.27,3.09,1.78,3.06,3.9A2,2,0,0,1,856,560Z" transform="translate(-742 -73)"/><path class="cls-2" d="M746,76.21a4,4,0,0,0-1.85,3h-1a5.35,5.35,0,0,1,2.83-5Z" transform="translate(-742 -73)"/><path class="cls-16" d="M882.06,524v7.05c-7.62.06-15.24.14-22.86.18-2.57,0-4.87-.79-4.88-3.74s2.3-3.7,4.88-3.68Z" transform="translate(-742 -73)"/><path class="cls-16" d="M890.05,539c0,2.77,0,5.54-.08,8.31-5.47-2-11.16-.8-16.74-1-2.78-.13-5.83-.13-5.87-3.71s3-3.77,5.81-3.75Z" transform="translate(-742 -73)"/><path class="cls-23" d="M846.73,524c1.76,0,4.56.07,4.62,3.44.08,3.77-3,3.7-5.67,3.67-2.5,0-5.45.15-5.46-3.34S843.16,524,846.73,524Z" transform="translate(-742 -73)"/><path class="cls-24" d="M848.06,516c.64-4.43-1.09-6.55-5.73-6a4,4,0,0,1-3.18-1.07l8.91.12c2.34,0,4.56.68,4.68,3.34C852.87,515.37,850.78,516.3,848.06,516Z" transform="translate(-742 -73)"/><path class="cls-25" d="M849.06,546c0-2.28.24-4.6-1-6.72h5c2.92,1.87,3.27,4.1,1,6.71Z" transform="translate(-742 -73)"/><path class="cls-26" d="M854.05,545.93c0-2.28.24-4.6-1-6.71,2.13-.12,3.59.78,3.88,2.94S856.32,545.68,854.05,545.93Z" transform="translate(-742 -73)"/><path class="cls-27" d="M1075.38,537.09c-1.33,0-2.67.1-4,0s-3,.76-3.6-.69.46-2.84,1.45-4c2.34-2.74,5.42-3,8.66-2.34,3,.66,5.65,2.74,5.35,5.68s-3.54.79-5.39,1.33A9.32,9.32,0,0,1,1075.38,537.09Z" transform="translate(-742 -73)"/><path class="cls-28" d="M963.92,534.3c-2.36.21-5.72.49-4.62-4.31.67-3-3-8.24,4.3-8,6.81.27,9.39,1.67,9.42,6.18C973.05,532.57,970.8,534.21,963.92,534.3Z" transform="translate(-742 -73)"/></svg>